<svg xmlns="http://www.w3.org/2000/svg" xmlns:xlink="http://www.w3.org/1999/xlink" width="15" height="17" viewBox="0 0 15 17"><defs><path id="a" d="M317.85 151.73h-9.77c-.78.02-1.5-.41-1.87-1.1a2.05 2.05 0 0 1 .38-2.35l.22-.23c.51-.5.8-1.19.8-1.9v-3.09l.01-.34a5.05 5.05 0 0 1 3.57-4.46v-1.52a1.74 1.74 0 0 1 3.49 0v1.52c2 .6 3.43 2.37 3.59 4.46l.01.34v2.97c-.01.64.22 1.26.64 1.76l.47.54c.31.37.49.83.49 1.32v.07a2.03 2.03 0 0 1-2.03 2.01zm-5.63-13.68c.19-.02.37-.03.56-.03h.32l.56.03v-1.31a.72.72 0 0 0-.72-.72c-.4 0-.72.33-.72.72zm-5.09 12.12c.19.34.56.55.95.54h9.74c.56 0 1-.44 1-.99v-.08a.97.97 0 0 0-.24-.65l-.46-.55a3.7 3.7 0 0 1-.9-2.41v-3.25a4.1 4.1 0 0 0-4.14-3.74h-.32a4.1 4.1 0 0 0-4.14 3.74v3.37c.01.99-.38 1.93-1.08 2.63l-.22.22c-.31.31-.38.78-.19 1.17z"/></defs><g transform="translate(-305 -135)"><use fill="#e9bd24" xlink:href="#a"/></g></svg>