<?xml version="1.0" encoding="utf-8"?>
<!-- Generator: Adobe Illustrator 19.0.1, SVG Export Plug-In . SVG Version: 6.00 Build 0)  -->
<svg version="1.0" id="Слой_1" xmlns="http://www.w3.org/2000/svg" xmlns:xlink="http://www.w3.org/1999/xlink" x="0px" y="0px"
	 viewBox="-46.8 79.1 507.7 507.7" enable-background="new -46.8 79.1 507.7 507.7" xml:space="preserve">
<g>
	<path d="M64.8,383.8H80v91.4c0,5.6,4.5,10.2,10.2,10.2h30.5c5.6,0,10.2-4.5,10.2-10.2v-91.4h15.2c5.6,0,10.2-4.5,10.2-10.2v-81.2
		c0-5.6-4.5-10.2-10.2-10.2h-15.2v-91.4c0-5.6-4.5-10.2-10.2-10.2H90.2c-5.6,0-10.2,4.5-10.2,10.2v91.4H64.8
		c-5.6,0-10.2,4.5-10.2,10.2v81.2C54.7,379.2,59.2,383.8,64.8,383.8z"/>
	<path d="M450.7,282.2h-15.2v-91.4c0-5.6-4.5-10.2-10.2-10.2h-30.5c-5.6,0-10.2,4.5-10.2,10.2v91.4h-15.2c-5.6,0-10.2,4.5-10.2,10.2
		v81.2c0,5.6,4.5,10.2,10.2,10.2h15.2v91.4c0,5.6,4.5,10.2,10.2,10.2h30.5c5.6,0,10.2-4.5,10.2-10.2v-91.4h15.2
		c5.6,0,10.2-4.5,10.2-10.2v-81.2C460.8,286.8,456.3,282.2,450.7,282.2z"/>
	<path d="M217.2,333h15.2v91.4c0,5.6,4.5,10.2,10.2,10.2H273c5.6,0,10.2-4.5,10.2-10.2V333h15.2c5.6,0,10.2-4.5,10.2-10.2v-81.2
		c0-5.6-4.5-10.2-10.2-10.2h-15.2v-91.3c0-5.6-4.5-10.2-10.2-10.2h-30.5c-5.6,0-10.2,4.5-10.2,10.2v91.4h-15.2
		c-5.6,0-10.2,4.5-10.2,10.2v81.2C207,328.5,211.5,333,217.2,333z"/>
	<path d="M450.7,536.1H3.9V89.3c0-5.6-4.5-10.2-10.2-10.2h-30.4c-5.6,0.1-10.1,4.6-10.1,10.2v472.1c0,14,11.4,25.4,25.4,25.4h472.1
		c5.6,0,10.2-4.5,10.2-10.2v-30.5C460.8,540.6,456.3,536.1,450.7,536.1z"/>
</g>
</svg>
