<svg xmlns="http://www.w3.org/2000/svg" xmlns:xlink="http://www.w3.org/1999/xlink" width="16" height="16" viewBox="0 0 16 16"><defs><path id="a" d="M1572 29a8 8 0 1 1-16 0 8 8 0 0 1 16 0zm-6.23-1.01a.7.7 0 0 0-.71-.65h-2.47a.12.12 0 0 0-.12.12c0 .16.32.19.42.22.3.07.67.23.78.54.11.29-.05.59-.18.84l-.36.79c-.34.72-.74 1.42-1.08 2.15-.16.33-.43.69-.38 1.08.05.35.35.6.71.6h2.47c.06 0 .11-.05.11-.12 0-.16-.31-.19-.42-.22-.33-.08-.7-.27-.77-.64-.08-.46.29-1 .47-1.39.33-.69 1.44-2.72 1.52-3.09.01-.08.02-.15.01-.23zm.56-2.53a1.14 1.14 0 1 0-2.28 0 1.14 1.14 0 0 0 2.28 0z"/></defs><g transform="translate(-1556 -21)"><use fill="#fff" xlink:href="#a"/></g></svg>