<?xml version="1.0" encoding="UTF-8"?>
<svg width="156px" height="15px" viewBox="0 0 156 15" version="1.1" xmlns="http://www.w3.org/2000/svg" xmlns:xlink="http://www.w3.org/1999/xlink">
    <!-- Generator: Sketch 46.2 (44496) - http://www.bohemiancoding.com/sketch -->
    <title>Group 8</title>
    <desc>Created with Sketch.</desc>
    <defs></defs>
    <g id="Page-1" stroke="none" stroke-width="1" fill="none" fill-rule="evenodd">
        <g id="MAIN_SCREEN" transform="translate(-53.000000, -39.000000)" fill="#FFFFFF">
            <g id="Group-8" transform="translate(53.000000, 39.000000)">
                <path d="M4.31187767,0 L9.78060056,0 L14.0924782,12.9593268 L14.0924782,15 L10.7902109,15 L10.0119696,12.5806452 L4.08050862,12.5806452 L3.30226729,15 L0,15 L0,12.9593268 L4.31187767,0 Z M7.04623911,3.19775596 L4.81668286,9.9088359 L9.29682892,9.9088359 L7.04623911,3.19775596 Z M21.183789,0 L21.183789,3.21879383 L25.621868,3.21879383 L25.621868,15 L29.3868733,15 L29.3868733,3.21879383 L33.8249523,3.21879383 L33.8249523,0 L21.183789,0 Z M43.0616851,0 L43.0616851,15 L52.9264199,15 L52.9264199,11.7812062 L46.8266905,11.7812062 L46.8266905,0 L43.0616851,0 Z M65.696789,0 L71.1655119,0 L75.4773896,12.9593268 L75.4773896,15 L72.1751223,15 L71.396881,12.5806452 L65.46542,12.5806452 L64.6871786,15 L61.3849114,15 L61.3849114,12.9593268 L65.696789,0 Z M68.4311505,3.19775596 L66.2015942,9.9088359 L70.6817403,9.9088359 L68.4311505,3.19775596 Z M99.1221039,0 L95.6515682,0 L95.6515682,10.4558205 L89.1732349,0 L85.2399611,0 L85.2399611,15 L88.7315304,15 L88.7315304,4.56521739 L95.2098637,15 L99.1221039,15 L99.1221039,0 Z M108.358837,0 L108.358837,3.21879383 L112.796916,3.21879383 L112.796916,15 L116.561921,15 L116.561921,3.21879383 L121,3.21879383 L121,0 L108.358837,0 Z" id="Logo"></path>
                <text id="DEX" font-family="Octarine-Bold, Octarine" font-size="10" font-weight="bold">
                    <tspan x="134" y="12">DEX</tspan>
                </text>
            </g>
        </g>
    </g>
</svg>