<?xml version="1.0" encoding="UTF-8"?>
<svg width="19px" height="18px" viewBox="0 0 19 18" version="1.1" xmlns="http://www.w3.org/2000/svg" xmlns:xlink="http://www.w3.org/1999/xlink">
    <!-- Generator: Sketch 46.2 (44496) - http://www.bohemiancoding.com/sketch -->
    <title>noun_1233281_cc copy 2</title>
    <desc>Created with Sketch.</desc>
    <defs></defs>
    <g id="Page-1" stroke="none" stroke-width="1" fill="none" fill-rule="evenodd">
        <g id="MAIN_SCREEN" transform="translate(-53.000000, -178.000000)" fill-rule="nonzero" fill="#9B9B9B">
            <g id="noun_1233281_cc-copy-2" transform="translate(53.000000, 178.000000)">
                <g id="Group">
                    <path d="M0.220227273,8.3626875 L8.75209091,8.3626875 L8.75209091,0.0275625 L0.220227273,0.0275625 L0.220227273,8.3626875 Z M1.9475,1.7150625 L7.02481818,1.7150625 L7.02481818,6.67546875 L1.9475,6.67546875 L1.9475,1.7150625 Z" id="Shape"></path>
                    <rect id="Rectangle-path" x="2.85460606" y="2.60128125" width="3.26281818" height="3.1876875"></rect>
                    <path d="M0.220227273,17.9724375 L8.75209091,17.9724375 L8.75209091,9.6373125 L0.220227273,9.6373125 L0.220227273,17.9724375 Z M1.9475,11.3248125 L7.02481818,11.3248125 L7.02481818,16.2852188 L1.9475,16.2852188 L1.9475,11.3248125 Z" id="Shape"></path>
                    <path d="M10.248197,0.0275625 L10.248197,8.36296875 L18.7800606,8.36296875 L18.7800606,0.0275625 L10.248197,0.0275625 Z M17.0525,6.6751875 L11.9754697,6.6751875 L11.9754697,1.7150625 L17.0527879,1.7150625 L17.0527879,6.6751875 L17.0525,6.6751875 Z" id="Shape"></path>
                    <rect id="Rectangle-path" x="10.248197" y="9.6373125" width="5.65710606" height="1.7769375"></rect>
                    <rect id="Rectangle-path" x="10.248197" y="12.2113125" width="1.81881818" height="5.761125"></rect>
                    <polygon id="Shape" points="16.8409091 15.0913125 14.6098485 15.0913125 14.6098485 16.1955 12.7386364 16.1955 12.7386364 17.9724375 14.8018636 17.9724375 14.8018636 16.8685313 16.7162576 16.8685313 16.7162576 17.9724375 18.7797727 17.9724375 18.7797727 16.1955 16.8409091 16.1955"></polygon>
                    <polygon id="Shape" points="16.9609545 12.166875 13.6981364 12.166875 13.6981364 13.9438125 16.9609545 13.9438125 17.1028788 13.9438125 18.7797727 13.9438125 18.7797727 9.6373125 16.9609545 9.6373125"></polygon>
                </g>
            </g>
        </g>
    </g>
</svg>