<svg xmlns="http://www.w3.org/2000/svg" xmlns:xlink="http://www.w3.org/1999/xlink" width="20" height="17" viewBox="0 0 20 17"><defs><path id="a" d="M304.41 1028.27h2.01v1.73h-2.01zm9.63-9.17h-2.01v-6.1h2.01zm7.62-4.43h-2.01V1013h2.01zm-15.24 8.85h-2.01V1013h2.01zm5.61.43h2.01v6.05h-2.01zm7.62-4.26h2.01V1030h-2.01zm-4.2.54v2.54c0 .22-.26.39-.57.39h-3.69c-.31 0-.57-.17-.57-.39v-2.54c0-.22.26-.39.57-.39h3.69c.31 0 .57.17.57.39zm7.55-4.35v2.54c0 .22-.26.4-.57.4h-3.69c-.31 0-.57-.18-.57-.4v-2.54c0-.22.26-.39.57-.39h3.69c.31 0 .57.17.57.39zm-15.17 8.7v2.54c0 .22-.26.39-.57.39h-3.69c-.31 0-.57-.17-.57-.39v-2.54c0-.22.26-.4.57-.4h3.69c.31 0 .57.18.57.4z"/></defs><g transform="translate(-303 -1013)"><use fill="#fff" xlink:href="#a"/></g></svg>