<?xml version="1.0" encoding="UTF-8"?>
<svg width="7px" height="9px" viewBox="0 0 7 9" version="1.1" xmlns="http://www.w3.org/2000/svg" xmlns:xlink="http://www.w3.org/1999/xlink">
    <!-- Generator: Sketch 46.2 (44496) - http://www.bohemiancoding.com/sketch -->
    <title>noun_1223560_cc copy 2</title>
    <desc>Created with Sketch.</desc>
    <defs></defs>
    <g id="Page-1" stroke="none" stroke-width="1" fill="none" fill-rule="evenodd">
        <g id="MAIN_SCREEN" transform="translate(-1530.000000, -694.000000)" fill-rule="nonzero" fill="#E9BD24">
            <g id="noun_1223560_cc-copy-2" transform="translate(1530.000000, 694.000000)">
                <path d="M3.19722514,2.43930883 L2.27656497,2.43930883 L2.36521568,7.44605568 L3.28587585,7.44605568 L3.19722514,2.43930883 Z M5.33183851,8.01691293 L5.33156234,8.03165832 C5.33156234,8.06059958 5.30808785,8.08413726 5.27936612,8.08413726 L1.72146239,8.08413726 C1.69237244,8.08413726 1.66871383,8.06059958 1.66871383,8.03165832 L1.48800631,2.43930883 L0.566977906,2.43930883 L0.748145713,8.04017585 C0.75284061,8.5702772 1.18762493,9 1.72146239,9 L5.27936612,9 C5.81292741,9 6.24761967,8.57018561 6.25213046,8.04008426 L6.43329826,2.43930883 L5.51226986,2.43930883 L5.33183851,8.01691293 Z M3.8033272,2.43930883 L3.71467649,7.44605568 L4.63533666,7.44605568 L4.72398738,2.43930883 L3.8033272,2.43930883 Z M5.36240137,0.966784711 C5.09792215,0.347753083 4.44210942,0 3.5,0 C2.55789058,0 1.90207785,0.347753083 1.63759863,0.966784711 L0,0.966784711 L0,1.88264745 L7,1.88264745 L7,0.966784711 L5.36240137,0.966784711 Z" id="Shape"></path>
            </g>
        </g>
    </g>
</svg>