<svg xmlns="http://www.w3.org/2000/svg" xmlns:xlink="http://www.w3.org/1999/xlink" width="20" height="17" viewBox="0 0 20 17"><defs><path id="a" d="M325 83.96v5.07c0 .72-.46 1.33-1.11 1.56v2.47c0 1.07-.88 1.94-1.96 1.94h-14.97a1.95 1.95 0 0 1-1.96-1.94V79.94c0-1.07.88-1.94 1.96-1.94h14.97c1.08 0 1.96.87 1.96 1.94v2.46c.65.24 1.11.85 1.11 1.56zm-1.14 0a.54.54 0 0 0-.54-.53h-1.11a.56.56 0 0 1-.57-.56c0-.31.25-.57.57-.57h.54v-2.36a.82.82 0 0 0-.82-.81h-14.97a.82.82 0 0 0-.82.81v13.12c0 .45.37.81.82.81h14.97c.45 0 .82-.36.82-.81V90.7h-5.34c-.93 0-1.69-.75-1.69-1.66v-5.07c0-.92.76-1.67 1.69-1.67h2.74c.32 0 .57.26.57.57 0 .31-.25.56-.57.56h-2.74c-.3 0-.54.24-.54.54v5.06c0 .3.24.54.54.54h5.91c.29 0 .54-.24.54-.54zm-4.34 1.61v1.86c0 .31-.26.56-.57.56a.56.56 0 0 1-.57-.56v-1.86a.57.57 0 1 1 1.14 0z"/></defs><g transform="translate(-305 -78)"><use fill="#fff" xlink:href="#a"/></g></svg>