<svg xmlns="http://www.w3.org/2000/svg" xmlns:xlink="http://www.w3.org/1999/xlink" width="15" height="16" viewBox="0 0 15 16"><defs><path id="a" d="M521.86 34.6a3.13 3.13 0 0 0 3.07 3.19c1.7 0 3.08-1.43 3.08-3.19v-8.42a2.45 2.45 0 0 1 2.41-2.49 2.46 2.46 0 0 1 2.42 2.49v2.72h-1.86l2.19 3.24 2.19-3.24h-1.86v-2.72a3.14 3.14 0 0 0-3.08-3.18 3.13 3.13 0 0 0-3.07 3.18v8.42c0 1.38-1.08 2.5-2.42 2.5a2.46 2.46 0 0 1-2.41-2.5v-2.48h1.86l-2.19-3.25-2.19 3.25h1.86z"/></defs><g transform="translate(-520 -22)"><use fill="#e9bd24" xlink:href="#a"/></g></svg>