<svg xmlns="http://www.w3.org/2000/svg" xmlns:xlink="http://www.w3.org/1999/xlink" width="29" height="21" viewBox="0 0 29 21"><defs><path id="a" d="M75.2 574c2.97 0 5.65.34 7.64.93 1 .29 1.82.64 2.44 1.07.59.41 1.06.96 1.12 1.66l.01.06v6.27a.7.7 0 0 1-.33.6.65.65 0 0 1-.66 0 .7.7 0 0 1-.33-.6v-.8c-.59.45-1.34.79-2.21 1.1a24.5 24.5 0 0 1-7.68 1.07c-2.97 0-5.66-.38-7.67-1.07a8.14 8.14 0 0 1-2.21-1.1v.8c0 .32.15.64.59 1.02a6.2 6.2 0 0 0 2.03 1.07c1.81.63 4.4 1 7.26 1a21 21 0 0 0 5.77-.66c.23-.06.47.01.64.18.16.18.22.43.16.67a.65.65 0 0 1-.47.48c-1.84.49-3.61.71-6.1.71-2.97 0-5.66-.38-7.67-1.07a7.91 7.91 0 0 1-2.21-1.15v.84c0 .33.15.65.59 1.03a6.2 6.2 0 0 0 2.03 1.07c1.81.63 4.4 1 7.26 1 1.93 0 3.33-.04 4.82-.33.36-.07.7.18.77.55a.7.7 0 0 1-.52.81c-1.62.31-3.12.35-5.07.35-2.97 0-5.66-.38-7.67-1.08a8.14 8.14 0 0 1-2.21-1.09v.79c0 .1.12.41.58.78.45.37 1.16.76 2.06 1.11 1.82.69 4.4 1.21 7.24 1.21 2.06 0 3.86-.26 5.45-.68.23-.05.47.02.64.2a.71.71 0 0 1-.33 1.15c-1.7.44-3.59.71-5.76.71a22.2 22.2 0 0 1-7.69-1.3 8.9 8.9 0 0 1-2.43-1.33c-.61-.5-1.08-1.09-1.08-1.85v-9.29-3.1-.06l.01-.05c.05-.7.52-1.26 1.11-1.68a8.67 8.67 0 0 1 2.44-1.07c1.99-.59 4.67-.93 7.64-.93zm0 1.38c-2.87 0-5.45.33-7.28.87a7.8 7.8 0 0 0-2.07.9c-.44.31-.53.54-.53.64 0 .32.15.64.59 1.02.43.38 1.13.76 2.03 1.08 1.81.62 4.4 1 7.26 1 2.87 0 5.46-.38 7.26-1 .91-.32 1.61-.7 2.04-1.08.44-.38.59-.7.59-1.02 0-.1-.1-.33-.54-.64a7.8 7.8 0 0 0-2.07-.9 26.97 26.97 0 0 0-7.28-.87zm-9.88 4.71v.8c0 .32.15.64.59 1.02a6.2 6.2 0 0 0 2.03 1.07c1.81.63 4.4 1.01 7.26 1.01 2.87 0 5.46-.38 7.26-1.01a6.16 6.16 0 0 0 2.04-1.07c.44-.38.59-.7.59-1.02v-.8c-.59.45-1.34.8-2.21 1.1a24.5 24.5 0 0 1-7.68 1.07c-2.97 0-5.66-.38-7.67-1.07a7.87 7.87 0 0 1-2.21-1.1zm23.4 6.31c.21-.02.43.06.59.21l3.22 2.94c.17.16.28.39.28.63 0 .25-.11.48-.28.64l-3.22 2.94a.78.78 0 0 1-1.14-.08.88.88 0 0 1 .08-1.19l1.6-1.46h-5.89a.8.8 0 0 1-.72-.39.9.9 0 0 1-.04-.84.82.82 0 0 1 .68-.45h5.98l-1.61-1.47a.86.86 0 0 1-.24-.91.8.8 0 0 1 .71-.57z"/></defs><g transform="translate(-64 -574)"><use fill="#e9bd24" xlink:href="#a"/></g></svg>